<?xml version="1.0" encoding="UTF-8"?>
<svg version="1.1" xmlns="http://www.w3.org/2000/svg" width="96" height="96">
<path d="M0 0 C2.5 2.0625 2.5 2.0625 4 5 C3.89790315 9.21027962 3.59271841 11.33046694 0.76953125 14.51953125 C-0.20628906 15.27621094 -1.18210937 16.03289063 -2.1875 16.8125 C-2.7148877 17.22411377 -3.24227539 17.63572754 -3.78564453 18.05981445 C-4.91684301 18.93407258 -6.05581638 19.79834704 -7.20166016 20.65332031 C-9.05597953 22.04192005 -10.87681458 23.46829326 -12.69921875 24.8984375 C-13.92257301 25.83063184 -15.14779323 26.76038325 -16.375 27.6875 C-17.23001099 28.35712769 -17.23001099 28.35712769 -18.10229492 29.0402832 C-21.04785416 31.19318793 -22.6036608 32.01972304 -26.296875 31.8359375 C-30.53340909 30.52579545 -30.53340909 30.52579545 -32 28 C-32.68512292 24.63147895 -32.94271398 23.17878554 -32 20 C-29.48128378 16.74327284 -26.26873912 14.47046093 -23 12 C-21.69358447 10.94484427 -20.38902262 9.88739093 -19.0859375 8.828125 C-17.68411488 7.71644706 -16.28045986 6.60707592 -14.875 5.5 C-14.20662109 4.95891602 -13.53824219 4.41783203 -12.84960938 3.86035156 C-8.50626454 0.53758578 -5.66901641 -0.84685307 0 0 Z " fill="#EF402C" transform="translate(40,25)"/>
<path d="M0 0 C1.8125 1.125 1.8125 1.125 3 3 C3.5 6.375 3.5 6.375 3 10 C-0.75292379 14.39648875 -5.29606471 17.44446389 -10.0625 20.625 C-11.470531 21.57481125 -12.87809751 22.52531152 -14.28515625 23.4765625 C-14.93822754 23.91452148 -15.59129883 24.35248047 -16.26416016 24.80371094 C-17.63954943 25.75158821 -18.96819087 26.76724559 -20.27734375 27.8046875 C-23.20487835 29.83603804 -25.57530114 29.48924269 -29 29 C-31.5 26.875 -31.5 26.875 -33 24 C-33.1875 21.0625 -33.1875 21.0625 -32 18 C-27.39597125 13.22395997 -21.66086382 9.47888189 -16.25 5.6875 C-15.49589844 5.15060547 -14.74179688 4.61371094 -13.96484375 4.06054688 C-13.23910156 3.54943359 -12.51335937 3.03832031 -11.765625 2.51171875 C-10.78770996 1.82275513 -10.78770996 1.82275513 -9.79003906 1.11987305 C-6.23187482 -1.10616342 -3.9281831 -1.17845493 0 0 Z " fill="#EF402C" transform="translate(85,42)"/>
<path d="M0 0 C0.78117187 0.45761719 1.56234375 0.91523437 2.3671875 1.38671875 C3.15480469 1.77730469 3.94242188 2.16789062 4.75390625 2.5703125 C5.89279297 3.19099609 5.89279297 3.19099609 7.0546875 3.82421875 C7.82167969 4.23542969 8.58867188 4.64664063 9.37890625 5.0703125 C11.3671875 6.38671875 11.3671875 6.38671875 13.3671875 9.38671875 C13.82385813 12.96397205 13.80496181 14.7213018 11.8046875 17.76171875 C8.36302488 20.0561605 6.48521044 19.81976481 2.3671875 19.38671875 C-0.94877096 17.99917731 -3.98651741 16.22556514 -7.0703125 14.38671875 C-8.31071289 13.67128906 -8.31071289 13.67128906 -9.57617188 12.94140625 C-11.60324362 11.76968848 -13.6212485 10.584799 -15.6328125 9.38671875 C-15.6328125 8.72671875 -15.6328125 8.06671875 -15.6328125 7.38671875 C-13.59762228 5.84915191 -11.60028855 4.48503171 -9.4453125 3.13671875 C-8.5780957 2.55277344 -8.5780957 2.55277344 -7.69335938 1.95703125 C-4.86493786 0.18007943 -3.32789678 -0.77519257 0 0 Z " fill="#C93628" transform="translate(32.6328125,51.61328125)"/>
<path d="M0 0 C3.31595846 1.38754144 6.35370491 3.16115361 9.4375 5 C10.26443359 5.47695313 11.09136719 5.95390625 11.94335938 6.4453125 C13.97043112 7.61703027 15.988436 8.80191975 18 10 C15.16667533 13.04516202 12.34499689 15.16868601 8.75 17.25 C7.41195312 18.03117187 7.41195312 18.03117187 6.046875 18.828125 C5.03367187 19.40820312 5.03367187 19.40820312 4 20 C1.68367725 18.71481447 -0.62796942 17.42228734 -2.9375 16.125 C-3.59685547 15.76019531 -4.25621094 15.39539062 -4.93554688 15.01953125 C-9.88671875 12.2265625 -9.88671875 12.2265625 -11 10 C-11.38503376 6.45768939 -11.41935959 4.63742658 -9.4375 1.625 C-5.99583738 -0.66944175 -4.11802294 -0.43304606 0 0 Z " fill="#C03427" transform="translate(61,25)"/>
<path d="M0 0 C0.68449219 0.40734375 1.36898437 0.8146875 2.07421875 1.234375 C-1.43475394 5.41861392 -5.0063866 9.43025666 -8.92578125 13.234375 C-12.39078125 11.254375 -12.39078125 11.254375 -15.92578125 9.234375 C-15.92578125 8.574375 -15.92578125 7.914375 -15.92578125 7.234375 C-13.89059103 5.69680816 -11.8932573 4.33268796 -9.73828125 2.984375 C-8.87106445 2.40042969 -8.87106445 2.40042969 -7.98632812 1.8046875 C-4.93996462 -0.10918607 -3.55824254 -0.93112889 0 0 Z " fill="#7E2422" transform="translate(32.92578125,51.765625)"/>
<path d="M0 0 C2 2 2 2 2.375 4.875 C2 8 2 8 0.4375 10.375 C-2.81682503 12.54455002 -5.17130414 12.29451507 -9 12 C-9 9 -9 9 -7.03125 6.73828125 C-5.77828125 5.53751953 -5.77828125 5.53751953 -4.5 4.3125 C-3.6646875 3.50425781 -2.829375 2.69601563 -1.96875 1.86328125 C-1.3190625 1.24839844 -0.669375 0.63351563 0 0 Z " fill="#DB3B2A" transform="translate(44,59)"/>
<path d="M0 0 C0.58523437 0.23074219 1.17046875 0.46148437 1.7734375 0.69921875 C0.32919115 3.93783178 -1.48428497 6.31891038 -3.8515625 8.94921875 C-4.48320312 9.655625 -5.11484375 10.36203125 -5.765625 11.08984375 C-6.48878906 11.88648437 -6.48878906 11.88648437 -7.2265625 12.69921875 C-8.5465625 12.03921875 -9.8665625 11.37921875 -11.2265625 10.69921875 C-9.8361126 7.59479844 -8.21084652 5.33357445 -5.8515625 2.88671875 C-5.26632813 2.26152344 -4.68109375 1.63632812 -4.078125 0.9921875 C-2.2265625 -0.30078125 -2.2265625 -0.30078125 0 0 Z " fill="#A32D25" transform="translate(36.2265625,54.30078125)"/>
<path d="M0 0 C0.99 0.33 1.98 0.66 3 1 C1.55575365 4.23861303 -0.25772247 6.61969163 -2.625 9.25 C-3.25664063 9.95640625 -3.88828125 10.6628125 -4.5390625 11.390625 C-5.02117188 11.92171875 -5.50328125 12.4528125 -6 13 C-6.99 12.67 -7.98 12.34 -9 12 C-6 8 -3 4 0 0 Z " fill="#B73227" transform="translate(38,55)"/>
<path d="M0 0 C0.99 0.33 1.98 0.66 3 1 C-0.50897269 5.18423892 -4.08060535 9.19588166 -8 13 C-8.66 12.01 -9.32 11.02 -10 10 C-6.7 6.7 -3.4 3.4 0 0 Z " fill="#8F2823" transform="translate(32,52)"/>
<path d="M0 0 C0.33 1.32 0.66 2.64 1 4 C-0.6875 6.3125 -0.6875 6.3125 -3 8 C-4.32 7.67 -5.64 7.34 -7 7 C-4.69 4.69 -2.38 2.38 0 0 Z " fill="#EB3F2C" transform="translate(45,63)"/>
</svg>
